<svg width="297" height="297" viewBox="0 0 297 297" fill="none" xmlns="http://www.w3.org/2000/svg">
<g filter="url(#filter0_d_529_76)">
<path d="M13 76C13 53.5979 13 42.3968 17.3597 33.8404C21.1947 26.3139 27.3139 20.1947 34.8404 16.3597C43.3968 12 54.5979 12 77 12H220C242.402 12 253.603 12 262.16 16.3597C269.686 20.1947 275.805 26.3139 279.64 33.8404C284 42.3968 284 53.5979 284 76V219C284 241.402 284 252.603 279.64 261.16C275.805 268.686 269.686 274.805 262.16 278.64C253.603 283 242.402 283 220 283H77C54.5979 283 43.3968 283 34.8404 278.64C27.3139 274.805 21.1947 268.686 17.3597 261.16C13 252.603 13 241.402 13 219V76Z" fill="url(#paint0_linear_529_76)"/>
<path d="M77 12.5H220C231.209 12.5 239.586 12.5001 246.231 13.043C252.871 13.5854 257.737 14.6677 261.933 16.8057C269.365 20.5926 275.407 26.6351 279.194 34.0674C281.332 38.2633 282.415 43.1295 282.957 49.7686C283.5 56.4136 283.5 64.7907 283.5 76V219C283.5 230.209 283.5 238.586 282.957 245.231C282.415 251.871 281.332 256.737 279.194 260.933C275.407 268.365 269.365 274.407 261.933 278.194C257.737 280.332 252.871 281.415 246.231 281.957C239.586 282.5 231.209 282.5 220 282.5H77C65.7907 282.5 57.4136 282.5 50.7686 281.957C44.1295 281.415 39.2633 280.332 35.0674 278.194C27.6351 274.407 21.5926 268.365 17.8057 260.933C15.6677 256.737 14.5854 251.871 14.043 245.231C13.5001 238.586 13.5 230.209 13.5 219V76C13.5 64.7907 13.5001 56.4136 14.043 49.7686C14.5854 43.1295 15.6677 38.2633 17.8057 34.0674C21.5926 26.6351 27.6351 20.5926 35.0674 16.8057C39.2633 14.6677 44.1295 13.5854 50.7686 13.043C57.4136 12.5001 65.7907 12.5 77 12.5Z" stroke="#3178C6"/>
</g>
<g filter="url(#filter1_d_529_76)">
<path d="M113.18 129.572C112.494 128.463 111.863 126.955 111.287 125.047C110.712 123.14 110.437 121.136 110.464 119.036C110.514 115.137 111.4 112.348 113.121 110.67C114.943 108.993 117.254 108.172 120.053 108.208L185.448 109.045C186.134 110.153 186.765 111.662 187.34 113.569C187.916 115.477 188.19 117.48 188.164 119.58C188.114 123.48 187.178 126.268 185.356 127.945C183.635 129.623 181.374 130.444 178.574 130.408L161.926 130.195L161.039 199.49C159.935 199.776 158.182 200.053 155.778 200.323C153.474 200.593 151.173 200.714 148.873 200.684C146.573 200.655 144.526 200.429 142.731 200.006C141.035 199.684 139.593 199.065 138.404 198.15C137.216 197.235 136.332 195.973 135.753 194.366C135.173 192.758 134.9 190.655 134.933 188.055L135.678 129.86L113.18 129.572Z" fill="white"/>
</g>
<g filter="url(#filter2_d_529_76)">
<mask id="path-4-inside-1_529_76" fill="white">
<path d="M132.483 239.339C131.691 243.831 127.394 246.865 122.981 245.706C101.49 240.065 82.3889 227.431 68.7682 209.681C53.4652 189.738 46.1916 164.784 48.3824 139.742C50.5731 114.699 62.069 91.3874 80.6024 74.4043C99.1358 57.4213 123.361 48.0003 148.499 48C173.636 47.9997 197.862 57.4199 216.396 74.4025C234.929 91.385 246.426 114.697 248.617 139.739C250.809 164.781 243.536 189.735 228.233 209.679C214.613 227.43 195.512 240.064 174.021 245.706C169.609 246.864 165.312 243.831 164.52 239.338C163.728 234.846 166.744 230.602 171.136 229.372C188.56 224.496 204.024 214.094 215.127 199.622C227.915 182.957 233.992 162.105 232.161 141.179C230.329 120.253 220.723 100.773 205.235 86.5822C189.748 72.3911 169.505 64.5193 148.499 64.5196C127.493 64.5199 107.25 72.3923 91.763 86.5837C76.2761 100.775 66.6697 120.255 64.8391 141.181C63.0085 162.107 69.0865 182.959 81.874 199.624C92.9783 214.095 108.442 224.497 125.866 229.373C130.259 230.602 133.275 234.846 132.483 239.339Z"/>
</mask>
<path d="M132.483 239.339C131.691 243.831 127.394 246.865 122.981 245.706C101.49 240.065 82.3889 227.431 68.7682 209.681C53.4652 189.738 46.1916 164.784 48.3824 139.742C50.5731 114.699 62.069 91.3874 80.6024 74.4043C99.1358 57.4213 123.361 48.0003 148.499 48C173.636 47.9997 197.862 57.4199 216.396 74.4025C234.929 91.385 246.426 114.697 248.617 139.739C250.809 164.781 243.536 189.735 228.233 209.679C214.613 227.43 195.512 240.064 174.021 245.706C169.609 246.864 165.312 243.831 164.52 239.338C163.728 234.846 166.744 230.602 171.136 229.372C188.56 224.496 204.024 214.094 215.127 199.622C227.915 182.957 233.992 162.105 232.161 141.179C230.329 120.253 220.723 100.773 205.235 86.5822C189.748 72.3911 169.505 64.5193 148.499 64.5196C127.493 64.5199 107.25 72.3923 91.763 86.5837C76.2761 100.775 66.6697 120.255 64.8391 141.181C63.0085 162.107 69.0865 182.959 81.874 199.624C92.9783 214.095 108.442 224.497 125.866 229.373C130.259 230.602 133.275 234.846 132.483 239.339Z" fill="white"/>
<path d="M132.483 239.339C131.691 243.831 127.394 246.865 122.981 245.706C101.49 240.065 82.3889 227.431 68.7682 209.681C53.4652 189.738 46.1916 164.784 48.3824 139.742C50.5731 114.699 62.069 91.3874 80.6024 74.4043C99.1358 57.4213 123.361 48.0003 148.499 48C173.636 47.9997 197.862 57.4199 216.396 74.4025C234.929 91.385 246.426 114.697 248.617 139.739C250.809 164.781 243.536 189.735 228.233 209.679C214.613 227.43 195.512 240.064 174.021 245.706C169.609 246.864 165.312 243.831 164.52 239.338C163.728 234.846 166.744 230.602 171.136 229.372C188.56 224.496 204.024 214.094 215.127 199.622C227.915 182.957 233.992 162.105 232.161 141.179C230.329 120.253 220.723 100.773 205.235 86.5822C189.748 72.3911 169.505 64.5193 148.499 64.5196C127.493 64.5199 107.25 72.3923 91.763 86.5837C76.2761 100.775 66.6697 120.255 64.8391 141.181C63.0085 162.107 69.0865 182.959 81.874 199.624C92.9783 214.095 108.442 224.497 125.866 229.373C130.259 230.602 133.275 234.846 132.483 239.339Z" stroke="white" stroke-width="2" mask="url(#path-4-inside-1_529_76)"/>
</g>
<defs>
<filter id="filter0_d_529_76" x="9" y="12" width="279" height="279" filterUnits="userSpaceOnUse" color-interpolation-filters="sRGB">
<feFlood flood-opacity="0" result="BackgroundImageFix"/>
<feColorMatrix in="SourceAlpha" type="matrix" values="0 0 0 0 0 0 0 0 0 0 0 0 0 0 0 0 0 0 127 0" result="hardAlpha"/>
<feOffset dy="4"/>
<feGaussianBlur stdDeviation="2"/>
<feComposite in2="hardAlpha" operator="out"/>
<feColorMatrix type="matrix" values="0 0 0 0 0 0 0 0 0 0 0 0 0 0 0 0 0 0 0.25 0"/>
<feBlend mode="normal" in2="BackgroundImageFix" result="effect1_dropShadow_529_76"/>
<feBlend mode="normal" in="SourceGraphic" in2="effect1_dropShadow_529_76" result="shape"/>
</filter>
<filter id="filter1_d_529_76" x="105.426" y="108.087" width="86.8718" height="101.086" filterUnits="userSpaceOnUse" color-interpolation-filters="sRGB">
<feFlood flood-opacity="0" result="BackgroundImageFix"/>
<feColorMatrix in="SourceAlpha" type="matrix" values="0 0 0 0 0 0 0 0 0 0 0 0 0 0 0 0 0 0 127 0" result="hardAlpha"/>
<feOffset dy="4"/>
<feGaussianBlur stdDeviation="2"/>
<feComposite in2="hardAlpha" operator="out"/>
<feColorMatrix type="matrix" values="0 0 0 0 0 0 0 0 0 0 0 0 0 0 0 0 0 0 0.25 0"/>
<feBlend mode="normal" in2="BackgroundImageFix" result="effect1_dropShadow_529_76"/>
<feBlend mode="normal" in="SourceGraphic" in2="effect1_dropShadow_529_76" result="shape"/>
</filter>
<filter id="filter2_d_529_76" x="43.9998" y="48" width="209" height="205.954" filterUnits="userSpaceOnUse" color-interpolation-filters="sRGB">
<feFlood flood-opacity="0" result="BackgroundImageFix"/>
<feColorMatrix in="SourceAlpha" type="matrix" values="0 0 0 0 0 0 0 0 0 0 0 0 0 0 0 0 0 0 127 0" result="hardAlpha"/>
<feOffset dy="4"/>
<feGaussianBlur stdDeviation="2"/>
<feComposite in2="hardAlpha" operator="out"/>
<feColorMatrix type="matrix" values="0 0 0 0 0 0 0 0 0 0 0 0 0 0 0 0 0 0 0.25 0"/>
<feBlend mode="normal" in2="BackgroundImageFix" result="effect1_dropShadow_529_76"/>
<feBlend mode="normal" in="SourceGraphic" in2="effect1_dropShadow_529_76" result="shape"/>
</filter>
<linearGradient id="paint0_linear_529_76" x1="148.5" y1="12" x2="148.5" y2="283" gradientUnits="userSpaceOnUse">
<stop stop-color="#3A86E9"/>
<stop offset="1" stop-color="#3178C6"/>
</linearGradient>
</defs>
</svg>
